<!-- Arquivo: nexa_nexa_logo_horizontal_light_transp_solid.svg | Função: Assinatura Principal (Fundo Claro Sólido) -->
<svg viewBox="0 0 451 130" width="100%" height="100%" xmlns="http://www.w3.org/2000/svg">
    <rect width="100%" height="100%" fill="#FFFFFF" />
    <defs>
        <linearGradient id="neonGrad" x1="0%" y1="100%" x2="100%" y2="0%">
            <stop offset="0%" stop-color="#f02bd4" /> <stop offset="50%" stop-color="#8b5cf6" /> <stop offset="100%" stop-color="#00d4ff" /> 
        </linearGradient>
        <filter id="lightGlow" x="-50%" y="-50%" width="200%" height="200%">
            <feGaussianBlur in="SourceGraphic" stdDeviation="12" result="glow1" />
            <feMerge><feMergeNode in="glow1" /><feMergeNode in="SourceGraphic" /></feMerge>
        </filter>
        <filter id="textGlowLight" x="-50%" y="-50%" width="200%" height="200%">
            <feGaussianBlur in="SourceGraphic" stdDeviation="2" result="tGlow1" />
            <feMerge><feMergeNode in="tGlow1" /><feMergeNode in="SourceGraphic" /></feMerge>
        </filter>
    </defs>
    <svg x="0" y="5" width="120" height="120" viewBox="0 0 500 500">
        <g filter="url(#lightGlow)">
            <path d="M 160 360 L 160 140 L 340 360 L 340 225 M 340 139 L 340 141" fill="none" stroke="url(#neonGrad)" stroke-width="56" stroke-linecap="round" stroke-linejoin="round" />
        </g>
    </svg>
    <g transform="translate(130, 13) scale(1.3)">
        <path d="M 0,60 L 0,20 L 12,20 L 36,50 L 36,20 L 48,20 L 48,60 L 36,60 L 12,30 L 12,60 Z" fill="#0B0D17"/>
        <path d="M 68,60 L 68,20 L 103,20 L 103,29 L 81,29 L 81,35 L 99,35 L 99,44 L 81,44 L 81,51 L 103,51 L 103,60 Z" fill="#0B0D17"/>
        <path d="M 118,20 L 132,20 L 158,60 L 144,60 Z" fill="#0B0D17"/>
        <path d="M 118,60 L 132,60 L 158,20 L 144,20 Z" fill="url(#neonGrad)" filter="url(#textGlowLight)"/>
        <path d="M 186,20 L 200,20 L 224,60 L 209,60 L 193,31 L 177,60 L 162,60 Z" fill="#0B0D17"/>
    </g>
</svg>
