<svg viewBox="0 0 322 82" width="100%" height="100%" xmlns="http://www.w3.org/2000/svg">
    <defs>
        <linearGradient id="cmykGrad" x1="0%" y1="100%" x2="100%" y2="0%">
            <stop offset="0%" stop-color="#D81B60" /><stop offset="50%" stop-color="#673AB7" /><stop offset="100%" stop-color="#0097A7" />
        </linearGradient>
    </defs>
    <g transform="translate(15, -11) scale(1.3)" fill="#1A1A1A">
        <path d="M 0,60 L 0,20 L 12,20 L 36,50 L 36,20 L 48,20 L 48,60 L 36,60 L 12,30 L 12,60 Z" />
        <path d="M 68,60 L 68,20 L 103,20 L 103,29 L 81,29 L 81,35 L 99,35 L 99,44 L 81,44 L 81,51 L 103,51 L 103,60 Z" />
        <path d="M 118,20 L 132,20 L 158,60 L 144,60 Z" />
        <path d="M 118,60 L 132,60 L 158,20 L 144,20 Z" fill="url(#cmykGrad)" />
        <path d="M 186,20 L 200,20 L 224,60 L 209,60 L 193,31 L 177,60 L 162,60 Z" />
    </g>
</svg>
