<!-- Arquivo: nexa_logo_vertical_cmyk.svg | Função: Assinatura Vertical (Cores Flat CMYK) -->
<svg viewBox="0 0 300 270" width="100%" height="100%" xmlns="http://www.w3.org/2000/svg">
    <defs>
        <linearGradient id="cmykGrad" x1="0%" y1="100%" x2="100%" y2="0%">
            <stop offset="0%" stop-color="#D81B60" /> <stop offset="50%" stop-color="#673AB7" /> <stop offset="100%" stop-color="#0097A7" /> 
        </linearGradient>
    </defs>
    <svg x="60" y="10" width="180" height="180" viewBox="0 0 500 500">
        <g fill="none" stroke="url(#cmykGrad)" stroke-width="70" stroke-linecap="round" stroke-linejoin="round">
            <path d="M 160 360 L 160 140 L 340 360 L 340 225" />
        </g>
        <circle cx="340" cy="140" r="35" fill="url(#cmykGrad)" />
    </svg>
    <g transform="translate(29, 155) scale(1.1)" fill="#1A1A1A">
        <path d="M 0,60 L 0,20 L 12,20 L 36,50 L 36,20 L 48,20 L 48,60 L 36,60 L 12,30 L 12,60 Z" />
        <path d="M 68,60 L 68,20 L 103,20 L 103,29 L 81,29 L 81,35 L 99,35 L 99,44 L 81,44 L 81,51 L 103,51 L 103,60 Z" />
        <path d="M 118,20 L 132,20 L 158,60 L 144,60 Z" />
        <path d="M 118,60 L 132,60 L 158,20 L 144,20 Z" fill="url(#cmykGrad)" />
        <path d="M 186,20 L 200,20 L 224,60 L 209,60 L 193,31 L 177,60 L 162,60 Z" />
    </g>
</svg>
