<!-- Arquivo: nexa_logo_horizontal_flat_black.svg | Função: Bordado e Corte Vinil 1 Cor (Preto) -->
<svg viewBox="0 0 451 130" width="100%" height="100%" xmlns="http://www.w3.org/2000/svg">
    <svg x="0" y="5" width="120" height="120" viewBox="0 0 500 500">
        <!-- Path puramente Sólido Preto -->
        <g fill="none" stroke="#000000" stroke-width="70" stroke-linecap="round" stroke-linejoin="round">
            <path d="M 160 360 L 160 140 L 340 360 L 340 225" />
        </g>
        <circle cx="340" cy="140" r="35" fill="#000000" />
    </svg>

    <g transform="translate(130, 13) scale(1.3)" fill="#000000">
        <!-- Todo o conjunto do Wordmark 100% preenchido com preto -->
        <path d="M 0,60 L 0,20 L 12,20 L 36,50 L 36,20 L 48,20 L 48,60 L 36,60 L 12,30 L 12,60 Z" />
        <path d="M 68,60 L 68,20 L 103,20 L 103,29 L 81,29 L 81,35 L 99,35 L 99,44 L 81,44 L 81,51 L 103,51 L 103,60 Z" />
        <path d="M 118,20 L 132,20 L 158,60 L 144,60 Z" />
        <path d="M 118,60 L 132,60 L 158,20 L 144,20 Z" />
        <path d="M 186,20 L 200,20 L 224,60 L 209,60 L 193,31 L 177,60 L 162,60 Z" />
    </g>
</svg>
